PathFileType	3	(X/Y/Z)	D:\Vicon Setup\UG\Test1\New Session\NewSession16.trc
DataRate	CameraRate	NumFrames	NumMarkers	Units	OrigDataRate	OrigDataStartFrame	OrigNumFrames
100.0	100.0	14	27	mm	100.0	639	357	
Frame#	Time	Sternum			LShoulder			RShoulder			LASIS			RASIS			RPSIS			LPSIS			RKneeLateral			RKneeMedial			RFibulaHead			RMidShank			RAnkleLateral			RAnkleMedial			RHeel			RMT5			RMT2			RToe			LKneeLateral			LKneeMedial			LFibulaHead			LMidShank			LAnkleLateral			LAnkleMedial			LHeel			LMT5			LMT2			LToe			
		X1	Y1	Z1	X2	Y2	Z2	X3	Y3	Z3	X4	Y4	Z4	X5	Y5	Z5	X6	Y6	Z6	X7	Y7	Z7	X8	Y8	Z8	X9	Y9	Z9	X10	Y10	Z10	X11	Y11	Z11	X12	Y12	Z12	X13	Y13	Z13	X14	Y14	Z14	X15	Y15	Z15	X16	Y16	Z16	X17	Y17	Z17	X18	Y18	Z18	X19	Y19	Z19	X20	Y20	Z20	X21	Y21	Z21	X22	Y22	Z22	X23	Y23	Z23	X24	Y24	Z24	X25	Y25	Z25	X26	Y26	Z26	X27	Y27	Z27	
639	6.38	-318.51602	1375.7209	367.8512	-134.30202	1456.2131	469.82645	-338.3537	1408.9662	165.19666	-196.44566	996.70343	457.78516	-334.70251	1009.3011	237.21133	-147.89539	1029.2163	206.54164	-80.340599	1034.0776	316.03491	-302.71259	533.37878	164.79323	-274.67325	505.17868	297.6355	-300.92145	451.6409	156.03636	-284.78116	283.70703	229.06281	-266.28552	120.2288	232.59767	-238.79712	93.507698	141.79276	-156.58534	62.112133	178.84158	-395.17429	36.151321	136.69107	-385.11279	60.265602	200.95471	-427.79568	41.880264	209.21947	-87.641777	518.85168	427.71313	-199.95497	492.15674	360.078	-70.551277	458.59756	414.23114	-136.41173	297.23425	394.20801	-34.244797	102.72823	358.73181	-128.80779	114.71635	363.16846	-60.908237	65.044548	268.6965	-33.782284	41.43784	495.68945	-104.61333	61.611885	490.79434	-122.71844	45.893734	528.55145
640	6.39	-321.92166	1375.9484	364.43686	-139.2532	1456.5826	468.88181	-338.71732	1408.5707	161.31616	-200.77975	996.39886	456.54877	-336.37817	1009.5011	234.50609	-149.25751	1029.4886	206.48695	-83.534241	1034.02	317.20242	-302.71164	533.56885	162.91545	-276.14865	507.03525	296.24887	-300.69385	451.81445	154.50035	-284.73645	284.28793	228.1852	-266.20462	120.48576	232.08151	-238.85518	93.350685	141.46788	-156.73317	62.112984	178.66081	-395.19846	36.006344	136.45404	-385.22031	60.338234	200.66499	-427.96106	41.916542	209.07898	-92.632484	518.8017	429.80582	-203.10439	491.84235	361.30048	-74.453499	458.59036	416.97781	-138.54919	297.18903	395.28073	-34.72398	103.23169	358.867	-129.45628	114.76349	363.1792	-61.187393	65.575882	268.91113	-33.846916	41.481075	495.75104	-104.77782	61.556751	490.93643	-122.86282	45.893402	528.58893
641	6.4	-325.29099	1376.194	360.89102	-144.31451	1457.0074	468.0647	-338.85092	1408.3362	157.47351	-205.42863	995.67712	455.09778	-338.01285	1009.7924	231.75742	-150.47037	1029.8098	206.38766	-86.83226	1033.9795	318.34534	-302.55661	533.67926	161.3567	-276.8233	507.939	294.57764	-300.49942	451.9357	152.98801	-284.86392	284.43188	227.2028	-266.68951	121.09566	231.87866	-238.89012	93.252281	141.31744	-156.7292	62.17149	178.56839	-395.20859	35.94001	136.26787	-385.17291	60.269058	200.49515	-427.90628	41.753841	209.04655	-96.366776	518.90948	431.80408	-207.24431	491.89621	363.13364	-77.918167	458.8833	418.84293	-140.22847	296.89392	396.34683	-34.635452	104.04978	359.39612	-129.94051	114.87261	363.35135	-61.604233	66.212654	269.10867	-34.059486	41.512924	495.82077	-104.95441	61.575626	491.10406	-122.96707	45.526211	528.88013
642	6.41	-328.72357	1376.4755	357.38025	-149.49985	1457.4364	467.34979	-338.53946	1407.9913	154.13748	-213.09154	997.28723	455.98685	-340.25287	1010.4062	228.7957	-152.15744	1030.0132	206.54196	-90.263512	1033.9749	319.5307	-302.22983	533.46509	160.25299	-276.69476	507.4852	292.39227	-300.35452	451.99039	151.45389	-285.40778	284.88541	226.52315	-265.91174	120.39368	231.47932	-238.95059	93.230408	141.24985	-156.65361	62.286495	178.56674	-395.23776	35.975155	136.07312	-385.23865	60.210514	200.42931	-427.86185	41.567574	209.08125	-100.78807	519.0473	434.01288	-210.77664	491.58981	364.65811	-81.507965	459.22351	420.63733	-143.51688	297.06512	397.5889	-34.714241	104.88528	359.79694	-130.84026	115.13672	363.88712	-61.974674	66.934982	269.36288	-34.265942	41.581997	495.88599	-105.38934	61.746719	491.31223	-123.0671	45.504787	528.87152
643	6.42	-332.16241	1376.7615	353.94324	-154.74139	1457.7241	466.66586	-338.5051	1407.9175	150.40715	-220.04057	997.5611	456.35242	-342.13852	1010.7534	225.85265	-153.67055	1030.2345	206.57845	-93.812508	1033.848	320.63776	-302.17502	533.48236	158.67294	-278.8541	508.02261	291.17752	-300.31876	451.95279	149.9554	-286.6846	285.03583	225.81258	-266.43164	120.83169	231.47134	-239.01843	93.220871	141.24387	-156.4742	62.331608	178.69594	-395.34146	36.054829	135.85873	-385.52798	59.962688	200.47212	-427.94757	41.560493	209.00455	-105.54121	519.16437	436.26791	-214.45024	491.28586	366.28192	-85.137283	459.65158	422.78909	-145.73831	297.0878	398.82758	-35.731148	105.36426	359.86105	-130.76266	115.00011	364.08344	-62.034653	68.020805	269.82736	-34.445652	41.427052	495.97757	-105.25191	61.44656	491.4812	-123.32102	45.513439	528.82983
644	6.43	-335.36237	1377.0323	350.54889	-159.88661	1457.9806	466.2178	-338.09268	1407.8782	147.06653	-225.09196	996.9881	454.3869	-343.90457	1010.9996	222.88841	-155.22249	1030.3981	206.58951	-97.086098	1033.812	321.68732	-302.2674	533.47363	157.18005	-280.87265	508.43399	289.56488	-300.48212	451.79733	148.50507	-287.11636	284.6962	224.75719	-266.57294	120.92321	231.366	-239.04959	93.174095	141.28377	-156.3506	62.359753	178.75053	-395.44864	36.031929	135.83241	-385.53918	59.976048	200.42766	-427.98724	41.475029	209.04688	-110.05325	519.0202	438.80273	-217.82893	490.74323	367.88928	-89.047577	459.98331	425.13791	-147.65094	296.80072	400.19247	-35.727028	106.85877	361.2431	-131.0555	115.147	364.67014	-62.091736	69.303078	270.37753	-34.467598	41.490978	496.16708	-105.36872	61.300037	491.67685	-123.60049	44.818081	529.26782
645	6.44	-338.43652	1377.2734	347.27725	-165.01891	1458.1715	465.92789	-337.55774	1407.8951	143.8291	-230.08823	996.55756	452.39059	-345.90546	1011.2585	219.69029	-156.81033	1030.5179	206.52014	-100.96715	1033.6628	322.72375	-302.67133	533.4129	155.70699	-283.02283	508.44843	288.12851	-300.91895	451.63779	147.20461	-287.48422	284.56506	224.12576	-266.49808	120.84383	231.26053	-239.07547	93.134071	141.22069	-156.30832	62.318291	178.77646	-395.85382	36.235756	135.84135	-385.68066	60.141827	200.34525	-427.69821	41.066319	209.1118	-115.43513	519.44574	441.15421	-222.36737	489.91309	370.03555	-93.228096	460.34369	427.98312	-150.03487	296.56802	401.79205	-36.286861	108.12018	361.84042	-131.49211	115.55396	365.46677	-62.081593	70.990387	271.03162	-34.588081	41.702789	496.42517	-105.43243	61.133469	491.95987	-123.87225	44.774143	529.39276
646	6.45	-342.10406	1377.2482	344.05267	-170.60806	1458.3694	466.09637	-336.84302	1408.0714	140.72325	-240.19095	999.0484	454.05884	-347.776	1011.4413	216.384	-158.40814	1030.5763	206.3033	-104.63126	1033.4738	323.48547	-303.4585	533.26044	154.30141	-285.16019	508.37076	286.71759	-301.68463	451.48016	145.98434	-287.82492	284.54419	223.4778	-266.57779	120.894	231.10994	-239.14174	93.082588	141.10675	-156.32526	62.318977	178.79836	-395.55301	35.830177	135.97046	-385.61267	60.117012	200.26303	-427.7724	41.020706	209.15401	-121.14726	519.17267	444.17429	-226.60066	489.83875	371.95358	-98.16114	460.60117	431.2464	-152.5087	296.35257	403.54855	-36.465313	109.71156	363.14322	-132.13374	115.96725	366.24585	-62.198658	73.175583	271.68515	-34.256229	41.60099	496.72446	-105.5282	61.225983	492.39914	-123.43393	44.175251	529.68555
647	6.46	-344.94162	1377.5691	340.966	-176.19928	1458.1117	466.41077	-335.84198	1408.3176	137.72644	-241.86134	996.18658	448.9567	-349.58459	1011.5838	212.95682	-160.29562	1030.4923	206.32024	-108.21389	1033.189	324.29575	-304.55881	533.13873	152.80956	-287.35291	508.38995	285.30298	-302.75958	451.29645	144.72769	-288.17313	284.26004	222.42313	-266.5611	120.93613	230.92496	-239.22154	93.048874	140.95901	-156.37875	62.338413	178.79852	-395.6073	35.753288	136.01646	-385.61591	59.885902	200.35762	-427.90308	41.098484	209.13145	-126.59592	519.29956	446.68753	-231.40187	489.41397	374.30469	-103.53978	461.30347	434.39658	-155.06258	296.09753	405.586	-37.131748	111.18356	365.03101	-133.11542	116.49337	367.20956	-62.393215	75.647659	272.35352	-34.46682	41.757721	497.13211	-105.62904	61.345715	492.89206	-123.68546	44.225964	529.79633
648	6.47	-348.45905	1378.1274	337.62933	-181.50902	1457.8346	466.66061	-334.59918	1408.6689	134.81058	-247.96455	996.15076	447.18005	-351.3837	1011.7512	209.40181	-161.87885	1030.4867	205.58766	-112.10168	1033.2336	324.59198	-305.98264	533.00763	151.20879	-289.19458	508.52603	283.7377	-304.09766	451.17114	143.41728	-289.01099	284.61752	221.98714	-266.7627	121.13989	230.61995	-239.32471	93.05262	140.83138	-156.48323	62.426441	178.82469	-395.50485	35.680336	135.96724	-385.63403	60.120262	200.0432	-427.89322	40.983097	209.22462	-134.08702	520.04852	450.94534	-236.18925	488.66458	376.96091	-109.13142	461.78079	438.27017	-158.81895	296.56903	407.76315	-37.287495	113.66052	365.91446	-134.30423	117.56633	368.16708	-62.650829	78.824982	273.46106	-34.572536	41.851799	497.54584	-106.29852	61.408127	493.49426	-123.98949	43.492516	530.50647
649	6.48	-351.34967	1378.4469	334.51221	-187.29047	1457.4493	467.22675	-333.08151	1409.1306	131.93735	-254.03577	996.11993	445.1539	-353.04416	1011.8747	205.72339	-163.78429	1030.3903	205.31932	-115.4852	1033.2336	325.20981	-307.61313	532.90979	149.55986	-289.9252	508.33981	281.78653	-305.58261	451.06125	142.05499	-290.40897	285.27222	221.08424	-267.3075	121.65646	230.4603	-239.48146	93.063416	140.62437	-156.61359	62.60865	178.75555	-395.35611	35.607731	135.95934	-385.75638	60.106022	199.97414	-427.99008	40.908115	209.43388	-141.20024	520.13098	455.11673	-241.2525	488.13498	379.6712	-115.27095	462.39938	442.32538	-162.07553	296.98795	410.1546	-38.969635	115.48879	367.38992	-135.03809	118.49854	369.53674	-63.058636	82.343246	274.69562	-34.674099	41.857952	497.77429	-106.7609	60.945633	494.32513	-124.17536	43.412033	530.81128
650	6.49	-354.59442	1378.8197	331.27087	-193.69597	1457.1838	468.05301	-331.38193	1409.6947	129.17873	-257.37979	994.69067	440.81628	-354.60718	1012.0137	201.92546	-165.45821	1030.5323	204.82095	-119.36049	1033.1954	325.42062	-309.34323	532.83276	147.82906	-294.58096	510.40982	280.5947	-307.12662	450.9176	140.52431	-291.28433	285.25558	220.05344	-267.36475	121.63255	230.24312	-239.6295	93.061546	140.37743	-156.70226	62.799713	178.65515	-395.3573	35.474201	135.97142	-385.86118	59.984051	199.9422	-428.09155	41.04744	209.21327	-147.8779	520.04218	459.15262	-247.83231	487.61053	383.04431	-121.14441	463.34561	446.16479	-166.66612	297.35184	412.85983	-39.953621	118.56897	369.4566	-136.06583	119.65908	370.99515	-63.543743	86.314476	276.1813	-34.907005	42.076981	498.22589	-106.99474	61.037392	495.21582	-124.528	43.525715	530.9433
651	6.5	-357.87915	1379.2111	327.95343	-200.10863	1456.3539	468.83878	-329.59427	1410.298	126.54644	-267.04044	996.3656	441.58786	-356.08688	1012.1652	197.95343	-167.21606	1030.3031	204.08604	-123.89027	1032.7887	325.45154	-311.17578	532.66644	145.92703	-295.32037	510.28992	278.4978	-308.59308	450.69708	138.93239	-292.2626	285.12872	219.05939	-266.84482	121.22698	229.78973	-239.80681	92.992157	140.03391	-156.70575	62.912025	178.54689	-395.8248	35.160583	135.98831	-385.94986	59.86414	199.85265	-428.1922	40.981091	209.21526	-156.57341	520.75897	463.67715	-253.60611	487.34109	386.08014	-129.79123	464.44577	452.00833	-170.61285	298.21262	415.79636	-41.131725	121.28061	371.36655	-137.3546	121.01657	372.64578	-64.110466	90.822273	277.96609	-35.488186	42.516014	498.80566	-107.51014	61.095226	496.20389	-125.03219	43.774021	531.11823
652	6.51	-361.14767	1379.4752	324.63663	-206.46939	1455.5532	469.4169	-327.81104	1410.9879	124.07232	-272.48035	995.82642	438.47064	-357.45184	1012.3624	193.94711	-168.92789	1030.1356	203.46182	-127.69632	1032.3873	325.75708	-313.00018	532.36896	143.96635	-295.76312	509.96893	275.70038	-310.04596	450.38596	137.19591	-293.51715	285.17856	217.93629	-267.02237	121.57069	229.14159	-239.94443	92.859612	139.55099	-156.71623	62.960594	178.44771	-395.91177	35.075706	135.80185	-385.99207	59.724991	199.71205	-428.12781	40.643761	209.38945	-164.58966	521.07544	468.21771	-260.21729	487.04395	389.70654	-136.56242	465.15985	456.40881	-175.13458	298.96973	418.88046	-42.365093	124.72313	374.0723	-138.85417	122.79686	374.5722	-64.860764	95.887711	280.25272	-35.588528	42.602421	499.46356	-108.04942	61.132511	497.49747	-125.48773	43.921131	531.33453
